<?xml version="1.0" standalone="no"?>
<!DOCTYPE svg PUBLIC "-//W3C//DTD SVG 20010904//EN"
 "http://www.w3.org/TR/2001/REC-SVG-20010904/DTD/svg10.dtd">
<svg version="1.0" xmlns="http://www.w3.org/2000/svg"
 width="700.000000pt" height="700.000000pt" viewBox="0 0 700.000000 700.000000"
 preserveAspectRatio="xMidYMid meet">
<metadata>
Created by potrace 1.14, written by Peter Selinger 2001-2017
</metadata>
<g transform="translate(0.000000,700.000000) scale(0.100000,-0.100000)"
fill="#000000" stroke="none">
<path d="M415 6981 c2 -10 6 -56 10 -102 3 -46 8 -100 10 -119 2 -19 7 -66 10
-105 3 -38 8 -88 10 -110 2 -22 7 -83 11 -135 3 -52 8 -103 9 -112 2 -9 7 -57
10 -105 4 -48 8 -99 10 -113 2 -14 6 -56 10 -95 12 -147 16 -181 20 -225 2
-25 7 -74 10 -110 6 -81 13 -157 20 -235 4 -33 8 -82 11 -110 2 -27 6 -72 9
-100 2 -27 7 -84 10 -125 3 -41 8 -93 10 -115 2 -22 7 -69 10 -105 11 -131 16
-186 21 -230 2 -25 6 -74 9 -110 3 -36 7 -85 10 -110 2 -25 7 -74 10 -110 3
-36 7 -85 10 -110 3 -25 7 -74 10 -110 7 -93 15 -189 20 -235 2 -22 7 -69 10
-105 3 -36 7 -92 10 -125 3 -33 7 -78 10 -100 2 -22 7 -71 10 -110 6 -69 10
-115 20 -230 3 -33 8 -85 10 -115 3 -30 7 -82 10 -115 3 -33 8 -84 11 -112 4
-55 10 -121 18 -208 3 -27 8 -84 11 -125 4 -41 8 -90 10 -108 2 -18 7 -65 10
-105 3 -40 8 -93 10 -117 3 -25 7 -76 10 -115 2 -38 7 -90 10 -115 2 -25 7
-70 9 -100 7 -73 16 -174 20 -230 10 -116 17 -188 21 -225 2 -22 7 -71 10
-110 3 -38 8 -88 10 -110 2 -22 7 -76 11 -120 3 -44 8 -96 10 -115 1 -19 6
-75 9 -125 7 -91 16 -115 42 -115 8 0 35 -6 61 -14 26 -8 121 -35 212 -60 91
-26 181 -51 200 -56 112 -32 436 -122 500 -139 41 -11 149 -41 240 -66 91 -26
190 -53 220 -62 30 -8 69 -19 85 -23 40 -10 654 -181 830 -230 l141 -40 74 21
c41 11 82 22 90 24 14 3 167 46 650 180 107 30 326 91 485 135 332 92 506 140
865 240 140 39 266 73 279 76 38 8 91 32 89 41 -2 7 7 120 18 228 2 22 6 67 9
100 7 91 15 174 20 233 3 28 7 78 10 110 3 31 7 80 10 107 2 28 7 82 10 120 3
39 8 88 10 110 3 22 7 70 10 105 6 77 14 168 20 230 3 25 7 74 10 110 6 75 14
170 20 220 2 19 7 69 10 110 3 41 8 95 10 120 3 25 7 72 10 105 6 72 14 163
20 225 2 25 7 79 10 120 3 41 7 91 10 110 5 41 15 153 20 225 7 86 16 189 20
215 2 14 6 63 10 110 4 47 8 101 10 120 2 19 6 68 10 108 3 39 8 91 10 115 2
23 9 98 15 167 6 69 13 145 15 170 3 25 7 74 10 110 3 36 7 85 10 110 3 25 7
79 10 120 3 41 8 93 10 115 5 41 10 100 20 216 6 70 14 162 20 224 2 22 6 76
10 120 4 44 8 91 10 105 2 14 6 63 10 110 3 47 8 101 10 120 5 39 12 123 20
220 3 36 8 88 10 115 3 28 7 79 10 115 3 36 8 83 10 105 2 22 7 72 10 110 3
39 8 88 10 110 2 22 7 76 10 120 3 44 8 94 10 110 2 17 7 66 10 110 4 44 8 90
10 103 l4 22 -3089 0 c-3007 0 -3089 0 -3085 -19z"/>
</g>
</svg>
