<!-- sprite.svg -->
<svg xmlns="http://www.w3.org/2000/svg" xmlns:xlink="http://www.w3.org/1999/xlink">
  <defs>
    <symbol viewBox="0 0 24 24" id="icon-1">
      <path d="M6.84 5.76L8.4 7.68H5.28l-.72 2.88H2.64l.72-2.88H1.44L0 13.44h3.84l-.48 1.92h3.36L4.2 18.24h2.82l2.34-2.88h5.28l2.34 2.88h2.82l-2.52-2.88h3.36l-.48-1.92H24l-1.44-5.76h-1.92l.72 2.88h-1.92l-.72-2.88H15.6l1.56-1.92h-2.04l-1.68 1.92h-2.88L8.88 5.76zm.24 3.84H9v1.92H7.08zm7.925 0h1.92v1.92h-1.92Z" />
    </symbol>
    <symbol viewBox="0 0 24 24" id="icon-2">
      <path d="M0 0h24v24H0V0zm22.034 18.276c-.175-1.095-.888-2.015-3.003-2.873-.736-.345-1.554-.585-1.797-1.14-.091-.33-.105-.51-.046-.705.15-.646.915-.84 1.515-.66.39.12.75.42.976.9 1.034-.676 1.034-.676 1.755-1.125-.27-.42-.404-.601-.586-.78-.63-.705-1.469-1.065-2.834-1.034l-.705.089c-.676.165-1.32.525-1.71 1.005-1.14 1.291-.811 3.541.569 4.471 1.365 1.02 3.361 1.244 3.616 2.205.24 1.17-.87 1.545-1.966 1.41-.811-.18-1.26-.586-1.755-1.336l-1.83 1.051c.21.48.45.689.81 1.109 1.74 1.756 6.09 1.666 6.871-1.004.029-.09.24-.705.074-1.65l.046.067zm-8.983-7.245h-2.248c0 1.938-.009 3.864-.009 5.805 0 1.232.063 2.363-.138 2.711-.33.689-1.18.601-1.566.48-.396-.196-.597-.466-.83-.855-.063-.105-.11-.196-.127-.196l-1.825 1.125c.305.63.75 1.172 1.324 1.517.855.51 2.004.675 3.207.405.783-.226 1.458-.691 1.811-1.411.51-.93.402-2.07.397-3.346.012-2.054 0-4.109 0-6.179l.004-.056z" />
    </symbol>

    <symbol class='spinner_P7sC' viewBox="0 0 24 24" id="icon-3">
      <path d="M10.14,1.16a11,11,0,0,0-9,8.92A1.59,1.59,0,0,0,2.46,12,1.52,1.52,0,0,0,4.11,10.7a8,8,0,0,1,6.66-6.61A1.42,1.42,0,0,0,12,2.69h0A1.57,1.57,0,0,0,10.14,1.16Z" class="spinner_P7sC" />
    </symbol>

    <symbol viewBox="0 0 24 24" id='lock'>
        <path d="M6,9c-1.1,0-2,0.9-2,2v10c0,1.1,0.9,2,2,2h12c1.1,0,2-0.9,2-2V11c0-1.1-0.9-2-2-2H6z M12,18c-1.1,0-2-0.9-2-2s0.9-2,2-2
          s2,0.9,2,2S13.1,18,12,18z"/>
        <path d="M12,2C9.2,2,7,4.2,7,7v5h1.9V7c0-1.7,1.4-3.1,3.1-3.1s3.1,1.4,3.1,3.1v2H17V7C17,4.2,14.8,2,12,2z"/>
    </symbol>

    <symbol viewBox="0 0 24 24" id='email'>
        <path
        d="M 2.917969 16.667969 C 2.582031 16.667969 2.292969 16.542969 2.042969 16.292969 C 1.792969 16.042969 1.667969 15.75 1.667969 15.417969 L 1.667969 4.582031 C 1.667969 4.25 1.792969 3.957031 2.042969 3.707031 C 2.292969 3.457031 2.582031 3.332031 2.917969 3.332031 L 17.082031 3.332031 C 17.417969 3.332031 17.707031 3.457031 17.957031 3.707031 C 18.207031 3.957031 18.332031 4.25 18.332031 4.582031 L 18.332031 15.417969 C 18.332031 15.75 18.207031 16.042969 17.957031 16.292969 C 17.707031 16.542969 17.417969 16.667969 17.082031 16.667969 Z M 10 10.375 L 2.917969 5.730469 L 2.917969 15.417969 L 17.082031 15.417969 L 17.082031 5.730469 Z M 10 9.125 L 17 4.582031 L 3.019531 4.582031 Z M 2.917969 5.730469 L 2.917969 4.582031 L 2.917969 15.417969 Z M 2.917969 5.730469 "
      />
    </symbol>

    <symbol viewBox="0 0 24 24" id='user'>
      <path d="M 17.75 15.335938 C 17.539062 14.699219 17.152344 14.054688 16.585938 13.679688 C 15.492188 12.953125 14.21875 12.566406 12.988281 12.152344 C 12.691406 12.050781 12.390625 11.9375 12.117188 11.773438 C 11.875 11.628906 11.785156 11.335938 11.726562 11.074219 C 11.703125 10.9375 11.6875 10.796875 11.679688 10.660156 C 12.574219 9.4375 13.164062 7.445312 13.164062 5.8125 C 13.164062 3.261719 11.722656 2.550781 9.945312 2.550781 C 8.167969 2.550781 6.726562 3.257812 6.726562 5.808594 C 6.726562 7.503906 7.363281 9.578125 8.308594 10.785156 C 8.300781 10.878906 8.289062 10.976562 8.273438 11.070312 C 8.214844 11.328125 8.125 11.621094 7.882812 11.765625 C 7.609375 11.925781 7.308594 12.027344 7.011719 12.132812 C 5.78125 12.546875 4.507812 12.910156 3.414062 13.636719 C 2.847656 14.011719 2.460938 14.699219 2.25 15.335938 C 2.03125 15.996094 1.941406 16.816406 1.953125 17.480469 L 18.046875 17.480469 C 18.058594 16.816406 17.96875 15.996094 17.75 15.335938 Z M 17.75 15.335938 "/>
    </symbol>

    <symbol viewBox="0 0 24 24" id='tel'>
      <path xmlns="http://www.w3.org/2000/svg" d="M 19.550781 15.804688 L 16.460938 12.714844 C 15.847656 12.105469 14.828125 12.121094 14.191406 12.757812 L 12.636719 14.316406 C 12.539062 14.261719 12.4375 14.203125 12.328125 14.144531 C 11.347656 13.601562 10 12.855469 8.585938 11.4375 C 7.167969 10.019531 6.417969 8.671875 5.875 7.6875 C 5.816406 7.582031 5.761719 7.484375 5.707031 7.386719 L 6.75 6.34375 L 7.265625 5.832031 C 7.902344 5.191406 7.917969 4.175781 7.304688 3.558594 L 4.21875 0.472656 C 3.601562 -0.144531 2.582031 -0.125 1.945312 0.511719 L 1.074219 1.390625 L 1.101562 1.414062 C 0.808594 1.785156 0.5625 2.214844 0.382812 2.679688 C 0.214844 3.117188 0.109375 3.539062 0.0625 3.960938 C -0.34375 7.34375 1.199219 10.433594 5.394531 14.625 C 11.1875 20.421875 15.859375 19.984375 16.0625 19.960938 C 16.5 19.910156 16.921875 19.804688 17.347656 19.640625 C 17.808594 19.460938 18.238281 19.214844 18.609375 18.925781 L 18.628906 18.941406 L 19.511719 18.078125 C 20.148438 17.441406 20.164062 16.421875 19.550781 15.804688 Z M 18.824219 17.390625 L 18.4375 17.777344 L 18.28125 17.929688 C 18.039062 18.164062 17.613281 18.496094 17 18.734375 C 16.648438 18.871094 16.304688 18.957031 15.953125 19 C 15.910156 19.003906 11.515625 19.378906 6.078125 13.941406 C 1.457031 9.316406 0.714844 6.652344 1.023438 4.074219 C 1.0625 3.730469 1.148438 3.386719 1.285156 3.027344 C 1.53125 2.40625 1.859375 1.984375 2.09375 1.742188 L 2.632812 1.199219 C 2.890625 0.941406 3.292969 0.917969 3.53125 1.15625 L 6.621094 4.246094 C 6.855469 4.480469 6.835938 4.886719 6.578125 5.148438 L 4.492188 7.230469 L 4.683594 7.554688 C 4.792969 7.734375 4.90625 7.9375 5.027344 8.15625 C 5.601562 9.191406 6.382812 10.609375 7.902344 12.121094 C 9.414062 13.636719 10.828125 14.421875 11.859375 14.992188 C 12.082031 15.117188 12.285156 15.230469 12.46875 15.339844 L 12.792969 15.53125 L 14.878906 13.445312 C 15.136719 13.1875 15.542969 13.167969 15.777344 13.402344 L 18.867188 16.492188 C 19.101562 16.726562 19.082031 17.132812 18.824219 17.390625 Z M 18.824219 17.390625 " />
    </symbol>


    <symbol viewBox="0 0 24 24" id='eye'>
        <path d="M 10 15.441406 C 7.75 15.441406 5.332031 14.5625 3 12.898438 C 1.257812 11.65625 0.183594 10.421875 0.136719 10.371094 C -0.046875 10.15625 -0.046875 9.84375 0.136719 9.628906 C 0.183594 9.578125 1.257812 8.34375 3 7.101562 C 5.332031 5.4375 7.75 4.558594 10 4.558594 C 12.25 4.558594 14.667969 5.4375 17 7.101562 C 18.742188 8.34375 19.816406 9.578125 19.863281 9.628906 C 20.046875 9.84375 20.046875 10.15625 19.863281 10.371094 C 19.816406 10.421875 18.742188 11.65625 17 12.898438 C 14.667969 14.5625 12.25 15.441406 10 15.441406 Z M 1.339844 10 C 1.777344 10.445312 2.597656 11.222656 3.679688 11.992188 C 5.164062 13.050781 7.46875 14.3125 10 14.3125 C 12.53125 14.3125 14.835938 13.050781 16.320312 11.992188 C 17.402344 11.222656 18.222656 10.445312 18.660156 10 C 18.222656 9.558594 17.402344 8.777344 16.320312 8.007812 C 14.835938 6.949219 12.53125 5.6875 10 5.6875 C 7.46875 5.6875 5.164062 6.949219 3.679688 8.007812 C 2.597656 8.777344 1.777344 9.554688 1.339844 10 Z M 1.339844 10 " />
        <path d="M 10 13.507812 C 8.066406 13.507812 6.492188 11.933594 6.492188 10 C 6.492188 8.066406 8.066406 6.492188 10 6.492188 C 10.851562 6.492188 11.671875 6.800781 12.308594 7.363281 C 12.542969 7.566406 12.566406 7.925781 12.363281 8.160156 C 12.15625 8.394531 11.800781 8.417969 11.5625 8.210938 C 11.132812 7.832031 10.574219 7.625 10 7.625 C 8.691406 7.625 7.625 8.691406 7.625 10 C 7.625 11.308594 8.691406 12.375 10 12.375 C 11.308594 12.375 12.375 11.308594 12.375 10 C 12.375 9.6875 12.628906 9.433594 12.941406 9.433594 C 13.253906 9.433594 13.507812 9.6875 13.507812 10 C 13.507812 11.933594 11.933594 13.507812 10 13.507812 Z M 10 13.507812 " />
        <path d="M 10 11.132812 C 9.375 11.132812 8.867188 10.625 8.867188 10 C 8.867188 9.375 9.375 8.867188 10 8.867188 C 10.625 8.867188 11.132812 9.375 11.132812 10 C 11.132812 10.625 10.625 11.132812 10 11.132812 Z M 10 11.132812 " />
    </symbol>
  </defs>
</svg>